<?xml version="1.0" encoding="utf-8"?>
<!-- Generator: Adobe Illustrator 22.1.0, SVG Export Plug-In . SVG Version: 6.00 Build 0)  -->
<svg version="1.1" xmlns="http://www.w3.org/2000/svg" xmlns:xlink="http://www.w3.org/1999/xlink" x="0px" y="0px"
	 viewBox="0 0 356.1 194.7" style="enable-background:new 0 0 356.1 194.7;" xml:space="preserve">
<style type="text/css">
	.st0{stroke:#2B2B2B;}
	.st1{fill:#00352D;stroke:#7D7D7D;stroke-width:0.5089;stroke-linejoin:bevel;}
	.st2{fill:#603E20;stroke:#7D7D7D;stroke-width:0.5089;stroke-linejoin:bevel;}
	.st3{fill:#00002A;stroke:#7D7D7D;stroke-width:0.5089;stroke-linejoin:bevel;}
	.st4{enable-background:new    ;}
	.st5{fill:#FCFCFC;stroke:#FFFFFF;stroke-width:0.365;}
</style>
<g id="Layer_3">
	<rect x="-53.8" y="-27.7" class="st0" width="519.6" height="370"/>
</g>
<g id="svg8" inkscape:version="0.92.1 r15371" sodipodi:docname="logo.svg" xmlns:cc="http://creativecommons.org/ns#" xmlns:dc="http://purl.org/dc/elements/1.1/" xmlns:inkscape="http://www.inkscape.org/namespaces/inkscape" xmlns:rdf="http://www.w3.org/1999/02/22-rdf-syntax-ns#" xmlns:sodipodi="http://sodipodi.sourceforge.net/DTD/sodipodi-0.dtd" xmlns:svg="http://www.w3.org/2000/svg">
	
		<sodipodi:namedview  bordercolor="#666666" borderopacity="1" gridtolerance="10" guidetolerance="10" id="namedview4522" inkscape:current-layer="svg8" inkscape:cx="563.66591" inkscape:cy="155.26234" inkscape:pageopacity="0" inkscape:pageshadow="2" inkscape:window-height="986" inkscape:window-maximized="1" inkscape:window-width="1920" inkscape:window-x="-11" inkscape:window-y="-11" inkscape:zoom="0.47345612" objecttolerance="10" pagecolor="#ffffff" showgrid="false">
		</sodipodi:namedview>
	<g id="layer2" transform="translate(51.372185,-80.050702)">
	</g>
	<g id="layer1" transform="translate(51.372185,-80.050702)">
	</g>
	<g id="layer3" transform="translate(51.372185,-80.050702)">
	</g>
	<g id="layer4" transform="translate(51.372185,-80.050702)">
	</g>
	<g id="layer5" transform="translate(51.372185,-80.050702)">
	</g>
	<g id="layer6" transform="translate(51.372185,-80.050702)">
	</g>
	<g id="layer7" transform="translate(51.372185,-80.050702)">
	</g>
	<g id="g4792" transform="translate(77.882572,-219.34122)">
	</g>
	<rect id="rect4728_1_" x="-53.8" y="-27.7" class="st1" width="141.8" height="370"/>
	<rect id="rect4728-3_1_" x="101.5" y="-27.7" class="st2" width="141.8" height="370"/>
	<rect id="rect4728-5_1_" x="256.8" y="-27.7" class="st3" width="234.4" height="370"/>
</g>
<g id="Layer_4">
	<g class="st4">
		<path class="st5" d="M-40.7,156.7c10.6,6.3,26.6,11.9,43.4,11.9c21,0,32.7-10.2,32.7-25.4c0-14.1-9-22.4-31.9-30.9
			C-26.1,101.3-45,85-45,58.2c0-30.4,24.5-53.5,63.3-53.5c19.4,0,33.8,4.4,43.1,9.4l-8,27.3c-6.4-3.6-18.9-8.8-35.7-8.8
			C-2.9,32.5-12,44.1-12,54.9c0,14.4,10.4,21,34.3,30.6c31.1,12.1,46.3,28.4,46.3,55.2c0,29.8-21.8,55.8-68.1,55.8
			c-18.9,0-38.6-5.5-48.4-11.6L-40.7,156.7z"/>
		<path class="st5" d="M93.3,193.7l31.7-83.3h12.3l31.7,83.3h-13.1l-7.6-20.8h-36.7l-7.7,20.8H93.3z M115.3,163.3h29.3l-14.7-39.8
			L115.3,163.3z"/>
		<path class="st5" d="M177.4,193.7v-83.3h14.8l17.7,51.3h0.1l17.3-51.3h15.5v83.3h-10.1v-71.5h-0.1l-18.1,53.9h-10.4l-18-52.4h-0.1
			v70H177.4z"/>
		<path class="st5" d="M260,110.4h12.3V161c0,8.8,1.3,15.2,4,19.2c2.7,4,7,5.9,13.1,5.9c6.3,0,10.9-2,13.7-5.9
			c2.8-4,4.2-10.5,4.2-19.5v-50.3h10.8v48.4c0,10.4-1.2,17.9-3.6,22.5c-5,9.7-13.4,14.5-25,14.5c-10.1,0-17.5-2.9-22.3-8.6
			s-7.2-14.5-7.2-26.4V110.4z"/>
		<path class="st5" d="M342.8,193.7v-83.3h54.3v9.6h-41.9v25.3h35.6v9.6h-35.6v29.2H400v9.6H342.8z"/>
		<path class="st5" d="M422.1,193.7v-83.3h12.3v73.7h43.3v9.6H422.1z"/>
	</g>
	<g class="st4">
		<path class="st5" d="M33.2,266.1l-11.7,40.1H-4.2l43.7-141.5h31.8l44.3,141.5H88.9l-12.3-40.1H33.2z M72.3,246.6l-10.7-34.9
			c-2.6-8.6-4.9-18.3-6.9-26.5h-0.4c-2,8.2-4,18.1-6.5,26.5l-10.5,34.9H72.3z"/>
		<path class="st5" d="M116.8,306.2v-60.3h8.4l26.6,43.7h0.1v-43.7h7.3v60.3H151l-26.8-44.1h-0.1v44.1H116.8z"/>
		<path class="st5" d="M172.3,306.2v-6.9h15.6V253h-15.6v-6.9h40.1v6.9h-15.6v46.3h15.6v6.9H172.3z"/>
		<path class="st5" d="M223.1,306.2v-60.1h10.7l12.7,37h0.1l12.5-37h11.2v60.1h-7.3v-51.6H263l-13.1,38.9h-7.5l-13-37.8h-0.1v50.5
			H223.1z"/>
		<path class="st5" d="M273.8,306.2l22.9-60.1h8.9l22.9,60.1H319l-5.5-15H287l-5.6,15H273.8z M289.7,284.2h21.2l-10.6-28.7
			L289.7,284.2z"/>
		<path class="st5" d="M351,306.2V253h-22.3v-6.9h53.5v6.9h-22.3v53.2H351z"/>
		<path class="st5" d="M391.8,306.2v-60.1h39.2v6.9h-30.3v18.2h25.7v6.9h-25.7v21.1H433v6.9H391.8z"/>
		<path class="st5" d="M482,247.5v8c-6.5-2.6-12.4-3.9-17.4-3.9c-8,0-12.1,2.8-12.1,8.4c0,2.3,0.8,4.1,2.3,5.5
			c1.5,1.4,4.3,2.8,8.4,4.3l5.7,2.1l5.4,1.9c8.4,3.1,12.6,8.3,12.6,15.6c0,5.6-2.1,10-6.4,13.3c-4.3,3.3-10,5-17.2,5
			c-5,0-11.5-1.1-19.4-3.3v-9.1c7.9,3.7,14.4,5.5,19.7,5.5c4.4,0,7.9-0.9,10.5-2.7c2.6-1.8,3.9-4.2,3.9-7.2c0-2.3-0.8-4.1-2.3-5.5
			c-1.6-1.3-4.8-2.9-9.6-4.8l-6-2.3c-5.9-2.3-10.1-4.6-12.4-7c-2.3-2.4-3.5-5.6-3.5-9.6c0-5.4,1.8-9.6,5.3-12.6s8.5-4.5,14.9-4.5
			C469.6,244.6,475.5,245.6,482,247.5z"/>
	</g>
</g>
</svg>
